<?xml version="1.0" standalone="no"?>
<!DOCTYPE svg PUBLIC "-//W3C//DTD SVG 20010904//EN"
 "http://www.w3.org/TR/2001/REC-SVG-20010904/DTD/svg10.dtd">
<svg version="1.0" xmlns="http://www.w3.org/2000/svg"
 width="500.000000pt" height="500.000000pt" viewBox="0 0 500.000000 500.000000"
 preserveAspectRatio="xMidYMid meet">

<g transform="translate(0.000000,500.000000) scale(0.100000,-0.100000)"
fill="#000000" stroke="none">
<path d="M1390 4175 c-36 -8 -108 -36 -160 -62 -160 -80 -283 -220 -348 -395
l-27 -73 -3 -1058 c-2 -847 0 -1057 10 -1051 10 6 11 4 0 -7 -46 -50 43 -299
153 -427 32 -37 39 -41 54 -30 14 11 14 11 4 -3 -11 -13 -9 -19 10 -35 82 -73
188 -127 299 -154 80 -19 123 -20 1128 -20 1013 0 1048 1 1129 20 127 31 231
89 327 185 89 88 137 166 181 290 l28 80 0 1090 0 1090 -28 80 c-74 209 -212
362 -397 440 -133 56 -108 55 -1245 54 -854 0 -1062 -3 -1115 -14z m1490 -629
c0 -2 -8 -10 -17 -17 -16 -13 -17 -12 -4 4 13 16 21 21 21 13z m670 0 c0 -2
-8 -10 -17 -17 -16 -13 -17 -12 -4 4 13 16 21 21 21 13z m-694 -321 c91 -17
202 -68 259 -118 140 -123 176 -371 79 -546 -27 -50 -29 -55 -11 -45 6 4 9 4
5 0 -3 -4 -9 -6 -11 -4 -9 6 -57 -45 -51 -54 3 -5 2 -7 -3 -6 -4 1 -34 -15
-66 -36 -31 -22 -94 -50 -140 -64 -77 -24 -99 -26 -344 -30 l-263 -4 0 -254 0
-254 -175 0 -175 0 0 71 c0 67 -1 71 -17 58 -17 -13 -17 -13 0 7 15 19 17 50
17 348 -1 254 -3 325 -13 319 -9 -5 -8 -2 1 9 9 12 13 71 12 239 0 123 -1 259
0 302 l0 77 409 0 c322 0 426 -3 487 -15z m694 -349 c0 -2 -8 -10 -17 -17 -16
-13 -17 -12 -4 4 13 16 21 21 21 13z m-2010 -670 c0 -2 -8 -10 -17 -17 -16
-13 -17 -12 -4 4 13 16 21 21 21 13z m1340 0 c0 -2 -8 -10 -17 -17 -16 -13
-17 -12 -4 4 13 16 21 21 21 13z m-1340 -670 c0 -2 -8 -10 -17 -17 -16 -13
-17 -12 -4 4 13 16 21 21 21 13z m670 0 c0 -2 -8 -10 -17 -17 -16 -13 -17 -12
-4 4 13 16 21 21 21 13z"/>
<path d="M2310 2843 c1 -97 4 -133 15 -147 19 -25 19 -56 1 -81 -13 -20 -11
-20 208 -17 210 3 223 4 271 27 67 32 89 70 89 155 0 78 -8 97 -32 78 -15 -11
-15 -11 -4 3 27 35 -13 70 -105 94 -41 11 -111 15 -250 15 l-193 0 0 -127z"/>
</g>
</svg>
